{
  "accessors": [
    {
      "bufferView": 2,
      "componentType": 5126,
      "count": 65532,
      "max": [
        316.451416015625,
        -159.54226684570313,
        173.70201110839844
      ],
      "min": [
        -326.9153747558594,
        -313.1217346191406,
        152.46011352539063
      ],
      "type": "VEC3"
    },
    {
      "bufferView": 2,
      "byteOffset": 786384,
      "componentType": 5126,
      "count": 65532,
      "max": [
        0.9999951720237732,
        1.0,
        0.999964714050293
      ],
      "min": [
        -0.9999951720237732,
        -1.0,
        -0.9999939203262329
      ],
      "type": "VEC3"
    },
    {
      "bufferView": 1,
      "componentType": 5126,
      "count": 65532,
      "max": [
        1.0,
        1.0
      ],
      "min": [
        0.0,
        0.0
      ],
      "type": "VEC2"
    },
    {
      "bufferView": 0,
      "componentType": 5125,
      "count": 314094,
      "type": "SCALAR"
    },
    {
      "bufferView": 2,
      "byteOffset": 1572768,
      "componentType": 5126,
      "count": 1124,
      "max": [
        313.8073425292969,
        -172.4834747314453,
        172.98622131347656
      ],
      "min": [
        -324.2181396484375,
        -273.2593078613281,
        153.0362548828125
      ],
      "type": "VEC3"
    },
    {
      "bufferView": 2,
      "byteOffset": 1586256,
      "componentType": 5126,
      "count": 1124,
      "max": [
        0.9987158179283142,
        1.0,
        0.9991618394851685
      ],
      "min": [
        -0.9992581605911255,
        -0.9999891519546509,
        -0.9990400075912476
      ],
      "type": "VEC3"
    },
    {
      "bufferView": 1,
      "byteOffset": 524256,
      "componentType": 5126,
      "count": 1124,
      "max": [
        1.0,
        1.0
      ],
      "min": [
        0.0,
        0.0
      ],
      "type": "VEC2"
    },
    {
      "bufferView": 0,
      "byteOffset": 1256376,
      "componentType": 5125,
      "count": 4455,
      "type": "SCALAR"
    },
    {
      "bufferView": 2,
      "byteOffset": 1599744,
      "componentType": 5126,
      "count": 25013,
      "max": [
        326.2684631347656,
        442.49822998046875,
        190.1151580810547
      ],
      "min": [
        -330.1470642089844,
        -361.83038330078125,
        -18.616779327392578
      ],
      "type": "VEC3"
    },
    {
      "bufferView": 2,
      "byteOffset": 1899900,
      "componentType": 5126,
      "count": 25013,
      "max": [
        0.9999803900718689,
        0.9999792575836182,
        0.9999498724937439
      ],
      "min": [
        -0.9999803900718689,
        -0.9999455809593201,
        -0.9999870657920837
      ],
      "type": "VEC3"
    },
    {
      "bufferView": 1,
      "byteOffset": 533248,
      "componentType": 5126,
      "count": 25013,
      "max": [
        1.0,
        1.0
      ],
      "min": [
        0.0,
        0.0
      ],
      "type": "VEC2"
    },
    {
      "bufferView": 0,
      "byteOffset": 1274196,
      "componentType": 5125,
      "count": 81336,
      "type": "SCALAR"
    },
    {
      "bufferView": 2,
      "byteOffset": 2200056,
      "componentType": 5126,
      "count": 1135,
      "max": [
        278.0665283203125,
        -290.7536926269531,
        166.4132843017578
      ],
      "min": [
        -283.0035095214844,
        -351.1333923339844,
        6.282451152801514
      ],
      "type": "VEC3"
    },
    {
      "bufferView": 2,
      "byteOffset": 2213676,
      "componentType": 5126,
      "count": 1135,
      "max": [
        0.9999992847442627,
        0.9839497208595276,
        0.9999378323554993
      ],
      "min": [
        -0.9999992847442627,
        -0.984006404876709,
        -0.9996666312217712
      ],
      "type": "VEC3"
    },
    {
      "bufferView": 1,
      "byteOffset": 733352,
      "componentType": 5126,
      "count": 1135,
      "max": [
        1.0,
        1.0
      ],
      "min": [
        0.0,
        0.04842329025268555
      ],
      "type": "VEC2"
    },
    {
      "bufferView": 0,
      "byteOffset": 1599540,
      "componentType": 5125,
      "count": 3216,
      "type": "SCALAR"
    },
    {
      "bufferView": 2,
      "byteOffset": 2227296,
      "componentType": 5126,
      "count": 808,
      "max": [
        324.9668273925781,
        -20.516765594482422,
        176.5921173095703
      ],
      "min": [
        -326.6250305175781,
        -243.4950408935547,
        138.70777893066406
      ],
      "type": "VEC3"
    },
    {
      "bufferView": 2,
      "byteOffset": 2236992,
      "componentType": 5126,
      "count": 808,
      "max": [
        0.9995647668838501,
        0.029705170542001724,
        0.12075204402208328
      ],
      "min": [
        -0.9995647668838501,
        -0.029696941375732422,
        -0.12074673175811768
      ],
      "type": "VEC3"
    },
    {
      "bufferView": 1,
      "byteOffset": 742432,
      "componentType": 5126,
      "count": 808,
      "max": [
        1.0,
        1.0
      ],
      "min": [
        0.0,
        0.0
      ],
      "type": "VEC2"
    },
    {
      "bufferView": 0,
      "byteOffset": 1612404,
      "componentType": 5125,
      "count": 2352,
      "type": "SCALAR"
    },
    {
      "bufferView": 2,
      "byteOffset": 2246688,
      "componentType": 5126,
      "count": 7596,
      "max": [
        324.9668273925781,
        -17.816038131713867,
        177.89234924316406
      ],
      "min": [
        -329.0368957519531,
        -244.48690795898438,
        133.76458740234375
      ],
      "type": "VEC3"
    },
    {
      "bufferView": 2,
      "byteOffset": 2337840,
      "componentType": 5126,
      "count": 7596,
      "max": [
        0.9995593428611755,
        0.9996557831764221,
        0.9999398589134216
      ],
      "min": [
        -0.9995585083961487,
        -0.9996496438980103,
        -0.9999364018440247
      ],
      "type": "VEC3"
    },
    {
      "bufferView": 1,
      "byteOffset": 748896,
      "componentType": 5126,
      "count": 7596,
      "max": [
        1.0,
        1.0
      ],
      "min": [
        0.0,
        0.0
      ],
      "type": "VEC2"
    },
    {
      "bufferView": 0,
      "byteOffset": 1621812,
      "componentType": 5125,
      "count": 20712,
      "type": "SCALAR"
    }
  ],
  "asset": {
    "extras": {
      "author": "ChechoGimenez (https://sketchfab.com/ChechoGimenez)",
      "license": "CC-BY-4.0 (http://creativecommons.org/licenses/by/4.0/)",
      "source": "https://sketchfab.com/3d-models/sunglasses-flow-3b5c8cafe4724879bd06fadc28ec556f",
      "title": "SUNGLASSES FLOW"
    },
    "generator": "Sketchfab-12.66.0",
    "version": "2.0"
  },
  "bufferViews": [
    {
      "buffer": 0,
      "byteLength": 1704660,
      "name": "floatBufferViews",
      "target": 34963
    },
    {
      "buffer": 0,
      "byteLength": 809664,
      "byteOffset": 1704660,
      "byteStride": 8,
      "name": "floatBufferViews",
      "target": 34962
    },
    {
      "buffer": 0,
      "byteLength": 2428992,
      "byteOffset": 2514324,
      "byteStride": 12,
      "name": "floatBufferViews",
      "target": 34962
    }
  ],
  "buffers": [
    {
      "byteLength": 4943316,
      "uri": "scene.bin"
    }
  ],
  "materials": [
    {
      "doubleSided": true,
      "name": "Black",
      "pbrMetallicRoughness": {
        "metallicFactor": 0.0,
        "roughnessFactor": 0.6
      }
    },
    {
      "doubleSided": true,
      "name": "Black_1",
      "pbrMetallicRoughness": {
        "baseColorFactor": [
          0.0,
          0.0,
          0.0,
          1.0
        ],
        "roughnessFactor": 0.6
      }
    },
    {
      "alphaMode": "BLEND",
      "doubleSided": true,
      "name": "material",
      "pbrMetallicRoughness": {
        "baseColorFactor": [
          0.050495426829268296,
          0.050495426829268296,
          0.050495426829268296,
          0.8431783536585366
        ],
        "metallicFactor": 0.4956173780487805,
        "roughnessFactor": 0.6
      }
    },
    {
      "doubleSided": true,
      "name": "default",
      "pbrMetallicRoughness": {
        "metallicFactor": 0.0,
        "roughnessFactor": 0.6
      }
    }
  ],
  "meshes": [
    {
      "name": "Object_0",
      "primitives": [
        {
          "attributes": {
            "NORMAL": 1,
            "POSITION": 0,
            "TEXCOORD_0": 2
          },
          "indices": 3,
          "material": 0,
          "mode": 4
        }
      ]
    },
    {
      "name": "Object_1",
      "primitives": [
        {
          "attributes": {
            "NORMAL": 5,
            "POSITION": 4,
            "TEXCOORD_0": 6
          },
          "indices": 7,
          "material": 0,
          "mode": 4
        }
      ]
    },
    {
      "name": "Object_2",
      "primitives": [
        {
          "attributes": {
            "NORMAL": 9,
            "POSITION": 8,
            "TEXCOORD_0": 10
          },
          "indices": 11,
          "material": 1,
          "mode": 4
        }
      ]
    },
    {
      "name": "Object_3",
      "primitives": [
        {
          "attributes": {
            "NORMAL": 13,
            "POSITION": 12,
            "TEXCOORD_0": 14
          },
          "indices": 15,
          "material": 2,
          "mode": 4
        }
      ]
    },
    {
      "name": "Object_4",
      "primitives": [
        {
          "attributes": {
            "NORMAL": 17,
            "POSITION": 16,
            "TEXCOORD_0": 18
          },
          "indices": 19,
          "material": 3,
          "mode": 4
        }
      ]
    },
    {
      "name": "Object_5",
      "primitives": [
        {
          "attributes": {
            "NORMAL": 21,
            "POSITION": 20,
            "TEXCOORD_0": 22
          },
          "indices": 23,
          "material": 3,
          "mode": 4
        }
      ]
    }
  ],
  "nodes": [
    {
      "children": [
        1
      ],
      "matrix": [
        1.0,
        0.0,
        0.0,
        0.0,
        0.0,
        2.220446049250313e-16,
        -1.0,
        0.0,
        0.0,
        1.0,
        2.220446049250313e-16,
        0.0,
        0.0,
        0.0,
        0.0,
        1.0
      ],
      "name": "Sketchfab_model"
    },
    {
      "children": [
        2,
        3,
        4,
        5,
        6,
        7
      ],
      "name": "anteojos copy.obj.cleaner.materialmerger.gles"
    },
    {
      "mesh": 0,
      "name": "Object_2"
    },
    {
      "mesh": 1,
      "name": "Object_3"
    },
    {
      "mesh": 2,
      "name": "Object_4"
    },
    {
      "mesh": 3,
      "name": "Object_5"
    },
    {
      "mesh": 4,
      "name": "Object_6"
    },
    {
      "mesh": 5,
      "name": "Object_7"
    }
  ],
  "scene": 0,
  "scenes": [
    {
      "name": "Sketchfab_Scene",
      "nodes": [
        0
      ]
    }
  ]
}
